<svg width="33" height="31" viewBox="0 0 33 31" fill="none" xmlns="http://www.w3.org/2000/svg">
<path d="M4.25 4.66669V0.416687H7.08333V4.66669H11.3333V7.50002H7.08333V11.75H4.25V7.50002H0V4.66669H4.25ZM8.5 13.1667V8.91669H12.75V4.66669H22.6667L25.2592 7.50002H29.75C31.3083 7.50002 32.5833 8.77502 32.5833 10.3334V27.3334C32.5833 28.8917 31.3083 30.1667 29.75 30.1667H7.08333C5.525 30.1667 4.25 28.8917 4.25 27.3334V13.1667H8.5ZM18.4167 25.9167C22.3267 25.9167 25.5 22.7434 25.5 18.8334C25.5 14.9234 22.3267 11.75 18.4167 11.75C14.5067 11.75 11.3333 14.9234 11.3333 18.8334C11.3333 22.7434 14.5067 25.9167 18.4167 25.9167ZM13.8833 18.8334C13.8833 21.3409 15.9092 23.3667 18.4167 23.3667C20.9242 23.3667 22.95 21.3409 22.95 18.8334C22.95 16.3259 20.9242 14.3 18.4167 14.3C15.9092 14.3 13.8833 16.3259 13.8833 18.8334Z" fill="#C83B54"/>
</svg>
